<svg xmlns="http://www.w3.org/2000/svg" viewBox="3.9 160.8 604.3 470.4">
  <path d="M198.1 507c11.4 0 20.7-9.2 20.6-20.6V205.8c0-2.1 1.7-3.8 3.8-3.8H365a20.6 20.6 0 100-41.2H222.5a45 45 0 00-45 45v280.6c0 11.4 9.2 20.6 20.6 20.6z"/>
  <path d="M227.4 566l-36.5 23.6c-1 .5-2 .4-2.6.2-.7-.2-1.7-.6-2.3-1.7l-140.3-243c-.7-1.1-.6-2.2-.4-2.9s.6-1.7 1.7-2.3l86.5-51.6c9.8-5.9 13-18.5 7.2-28.3a20.7 20.7 0 00-28.3-7.2l-86.2 51.4a44.8 44.8 0 00-20.8 27.3 44.9 44.9 0 004.5 34.2l140.2 242.9a44.9 44.9 0 0027.4 21 45.2 45.2 0 0034.3-4.4l.5-.3 37.5-24.3a20.6 20.6 0 006.1-28.5 20.6 20.6 0 00-28.5-6.1zm379.2-245.3a45 45 0 00-21-27.4L460.4 221a45 45 0 00-22.4-6 45.2 45.2 0 00-39.1 22.5l-140.3 243a45 45 0 00-4.5 34.2 45 45 0 0021 27.4l125.3 72.3a45 45 0 0022.4 6c16.1 0 31-8.7 39-22.5l140.3-243a45 45 0 004.5-34.2zm-40.3 13.6L426 577.3c-.7 1.4-2.2 1.9-3.3 1.9a4 4 0 01-1.8-.5l-125.2-72.3a3.6 3.6 0 01-1.7-2.3c-.1-.7-.2-1.8.4-2.9l140.3-243c.7-1.4 2.2-1.9 3.3-1.9.6 0 1.2.1 1.7.5l125.2 72.3c1.1.6 1.5 1.6 1.7 2.3s.3 1.8-.3 2.9z"/>
</svg>
